<svg xmlns="http://www.w3.org/2000/svg" xmlns:xlink="http://www.w3.org/1999/xlink" width="500" zoomAndPan="magnify" viewBox="0 0 375 374.999991" height="500" preserveAspectRatio="xMidYMid meet" version="1.0"><defs><clipPath id="de423ece8f"><path d="M 58.59375 0 L 316.40625 0 C 348.765625 0 375 26.234375 375 58.59375 L 375 316.40625 C 375 348.765625 348.765625 375 316.40625 375 L 58.59375 375 C 26.234375 375 0 348.765625 0 316.40625 L 0 58.59375 C 0 26.234375 26.234375 0 58.59375 0 Z M 58.59375 0 " clip-rule="nonzero"/></clipPath><clipPath id="dd83987a84"><path d="M 87.273438 75 L 287.523438 75 L 287.523438 300 L 87.273438 300 Z M 87.273438 75 " clip-rule="nonzero"/></clipPath></defs><g clip-path="url(#de423ece8f)"><rect x="-37.5" width="450" fill="#000000" y="-37.499999" height="449.999989" fill-opacity="1"/></g><path fill="#f9f9f9" d="M 187.398438 77.441406 L 89.878906 126.25 L 187.398438 175.054688 L 284.914062 126.25 Z M 187.398438 77.441406 " fill-opacity="1" fill-rule="nonzero"/><path fill="#ececec" d="M 187.398438 175.054688 L 187.398438 297.070312 L 284.914062 248.265625 L 284.914062 126.246094 Z M 187.398438 175.054688 " fill-opacity="1" fill-rule="nonzero"/><path fill="#cccccc" d="M 187.398438 175.054688 L 187.398438 297.070312 L 89.878906 248.265625 L 89.878906 126.246094 Z M 187.398438 175.054688 " fill-opacity="1" fill-rule="nonzero"/><g clip-path="url(#dd83987a84)"><path stroke-linecap="butt" transform="matrix(4.875843, 0, 0, 4.880694, 41.122425, 65.912141)" fill="none" stroke-linejoin="miter" d="M 30.000146 2.375024 L 9.9996 12.375363 L 9.9996 37.37501 L 30.000146 47.375349 L 49.999892 37.37501 L 49.999892 12.375363 Z M 30.000146 2.375024 " stroke="#4d4d4d" stroke-width="1" stroke-opacity="1" stroke-miterlimit="4"/></g></svg>